<svg xmlns="http://www.w3.org/2000/svg" xmlns:xlink="http://www.w3.org/1999/xlink" width="400" zoomAndPan="magnify" viewBox="0 0 300 74.999997" height="100" preserveAspectRatio="xMidYMid meet" version="1.0"><defs><g/><clipPath id="ff58810a0a"><path d="M 10.703125 25.742188 L 27.039062 25.742188 L 27.039062 48.992188 L 10.703125 48.992188 Z M 10.703125 25.742188 " clip-rule="nonzero"/></clipPath></defs><g fill="#ffffff" fill-opacity="1"><g transform="translate(27.048058, 51.393027)"><g><path d="M 25.09375 -15.0625 C 26.738281 -14.488281 28.03125 -13.585938 28.96875 -12.359375 C 29.90625 -11.128906 30.375 -9.648438 30.375 -7.921875 C 30.375 -5.390625 29.351562 -3.4375 27.3125 -2.0625 C 25.28125 -0.6875 22.335938 0 18.484375 0 L 2.890625 0 L 2.890625 -28.890625 L 17.65625 -28.890625 C 21.34375 -28.890625 24.148438 -28.207031 26.078125 -26.84375 C 28.003906 -25.476562 28.96875 -23.640625 28.96875 -21.328125 C 28.96875 -19.953125 28.628906 -18.722656 27.953125 -17.640625 C 27.285156 -16.554688 26.332031 -15.695312 25.09375 -15.0625 Z M 10.984375 -22.984375 L 10.984375 -17.421875 L 16.59375 -17.421875 C 19.34375 -17.421875 20.71875 -18.351562 20.71875 -20.21875 C 20.71875 -22.0625 19.34375 -22.984375 16.59375 -22.984375 Z M 17.828125 -5.90625 C 20.691406 -5.90625 22.125 -6.878906 22.125 -8.828125 C 22.125 -10.785156 20.691406 -11.765625 17.828125 -11.765625 L 10.984375 -11.765625 L 10.984375 -5.90625 Z M 17.828125 -5.90625 "/></g></g></g><g fill="#ffffff" fill-opacity="1"><g transform="translate(58.783894, 51.393027)"><g><path d="M 3.390625 -30.625 L 8.546875 -30.625 L 8.546875 0 L 3.390625 0 Z M 3.390625 -30.625 "/></g></g></g><g fill="#ffffff" fill-opacity="1"><g transform="translate(70.706735, 51.393027)"><g><path d="M 13.28125 0.28125 C 11.050781 0.28125 9.039062 -0.195312 7.25 -1.15625 C 5.46875 -2.113281 4.070312 -3.453125 3.0625 -5.171875 C 2.0625 -6.898438 1.5625 -8.847656 1.5625 -11.015625 C 1.5625 -13.191406 2.0625 -15.128906 3.0625 -16.828125 C 4.070312 -18.535156 5.46875 -19.867188 7.25 -20.828125 C 9.039062 -21.796875 11.050781 -22.28125 13.28125 -22.28125 C 15.539062 -22.28125 17.5625 -21.796875 19.34375 -20.828125 C 21.132812 -19.867188 22.53125 -18.535156 23.53125 -16.828125 C 24.539062 -15.128906 25.046875 -13.191406 25.046875 -11.015625 C 25.046875 -8.847656 24.539062 -6.898438 23.53125 -5.171875 C 22.53125 -3.453125 21.132812 -2.113281 19.34375 -1.15625 C 17.5625 -0.195312 15.539062 0.28125 13.28125 0.28125 Z M 13.28125 -4.125 C 15.1875 -4.125 16.753906 -4.753906 17.984375 -6.015625 C 19.222656 -7.285156 19.84375 -8.953125 19.84375 -11.015625 C 19.84375 -13.078125 19.222656 -14.738281 17.984375 -16 C 16.753906 -17.269531 15.1875 -17.90625 13.28125 -17.90625 C 11.382812 -17.90625 9.820312 -17.269531 8.59375 -16 C 7.375 -14.738281 6.765625 -13.078125 6.765625 -11.015625 C 6.765625 -8.953125 7.375 -7.285156 8.59375 -6.015625 C 9.820312 -4.753906 11.382812 -4.125 13.28125 -4.125 Z M 13.28125 -4.125 "/></g></g></g><g fill="#ffffff" fill-opacity="1"><g transform="translate(97.316528, 51.393027)"><g><path d="M 13.5 0.28125 C 11.207031 0.28125 9.15625 -0.195312 7.34375 -1.15625 C 5.53125 -2.113281 4.113281 -3.453125 3.09375 -5.171875 C 2.070312 -6.898438 1.5625 -8.847656 1.5625 -11.015625 C 1.5625 -13.191406 2.070312 -15.128906 3.09375 -16.828125 C 4.113281 -18.535156 5.523438 -19.867188 7.328125 -20.828125 C 9.128906 -21.796875 11.1875 -22.28125 13.5 -22.28125 C 15.664062 -22.28125 17.566406 -21.835938 19.203125 -20.953125 C 20.847656 -20.078125 22.082031 -18.816406 22.90625 -17.171875 L 18.9375 -14.859375 C 18.300781 -15.867188 17.507812 -16.628906 16.5625 -17.140625 C 15.613281 -17.648438 14.578125 -17.90625 13.453125 -17.90625 C 11.523438 -17.90625 9.925781 -17.28125 8.65625 -16.03125 C 7.394531 -14.78125 6.765625 -13.109375 6.765625 -11.015625 C 6.765625 -8.921875 7.390625 -7.25 8.640625 -6 C 9.890625 -4.75 11.492188 -4.125 13.453125 -4.125 C 14.578125 -4.125 15.613281 -4.378906 16.5625 -4.890625 C 17.507812 -5.398438 18.300781 -6.164062 18.9375 -7.1875 L 22.90625 -4.875 C 22.050781 -3.21875 20.804688 -1.941406 19.171875 -1.046875 C 17.535156 -0.160156 15.644531 0.28125 13.5 0.28125 Z M 13.5 0.28125 "/></g></g></g><g fill="#ffffff" fill-opacity="1"><g transform="translate(121.079678, 51.393027)"><g><path d="M 12.375 -9.453125 L 8.546875 -5.8125 L 8.546875 0 L 3.390625 0 L 3.390625 -30.625 L 8.546875 -30.625 L 8.546875 -12.125 L 19.234375 -22.03125 L 25.421875 -22.03125 L 16.21875 -12.796875 L 26.28125 0 L 20.015625 0 Z M 12.375 -9.453125 "/></g></g></g><g fill="#ffffff" fill-opacity="1"><g transform="translate(147.318167, 51.393027)"><g/></g></g><g fill="#ffffff" fill-opacity="1"><g transform="translate(158.704681, 51.393027)"><g><path d="M 12.828125 0.40625 C 10.597656 0.40625 8.445312 0.09375 6.375 -0.53125 C 4.300781 -1.164062 2.65625 -2.003906 1.4375 -3.046875 L 3.296875 -7.21875 C 4.484375 -6.28125 5.9375 -5.515625 7.65625 -4.921875 C 9.375 -4.335938 11.097656 -4.046875 12.828125 -4.046875 C 14.972656 -4.046875 16.578125 -4.390625 17.640625 -5.078125 C 18.703125 -5.765625 19.234375 -6.671875 19.234375 -7.796875 C 19.234375 -8.617188 18.9375 -9.296875 18.34375 -9.828125 C 17.75 -10.367188 17 -10.789062 16.09375 -11.09375 C 15.1875 -11.394531 13.945312 -11.738281 12.375 -12.125 C 10.175781 -12.65625 8.394531 -13.179688 7.03125 -13.703125 C 5.675781 -14.222656 4.507812 -15.039062 3.53125 -16.15625 C 2.550781 -17.269531 2.0625 -18.773438 2.0625 -20.671875 C 2.0625 -22.265625 2.492188 -23.710938 3.359375 -25.015625 C 4.222656 -26.328125 5.53125 -27.367188 7.28125 -28.140625 C 9.03125 -28.910156 11.171875 -29.296875 13.703125 -29.296875 C 15.460938 -29.296875 17.191406 -29.078125 18.890625 -28.640625 C 20.597656 -28.203125 22.070312 -27.566406 23.3125 -26.734375 L 21.625 -22.578125 C 20.351562 -23.316406 19.03125 -23.878906 17.65625 -24.265625 C 16.28125 -24.648438 14.945312 -24.84375 13.65625 -24.84375 C 11.539062 -24.84375 9.96875 -24.484375 8.9375 -23.765625 C 7.90625 -23.054688 7.390625 -22.109375 7.390625 -20.921875 C 7.390625 -20.097656 7.679688 -19.421875 8.265625 -18.890625 C 8.859375 -18.367188 9.609375 -17.957031 10.515625 -17.65625 C 11.429688 -17.351562 12.671875 -17.007812 14.234375 -16.625 C 16.378906 -16.132812 18.140625 -15.617188 19.515625 -15.078125 C 20.890625 -14.546875 22.066406 -13.726562 23.046875 -12.625 C 24.023438 -11.53125 24.515625 -10.046875 24.515625 -8.171875 C 24.515625 -6.578125 24.078125 -5.128906 23.203125 -3.828125 C 22.335938 -2.535156 21.023438 -1.503906 19.265625 -0.734375 C 17.503906 0.0234375 15.359375 0.40625 12.828125 0.40625 Z M 12.828125 0.40625 "/></g></g></g><g fill="#ffffff" fill-opacity="1"><g transform="translate(184.654387, 51.393027)"><g><path d="M 15.59375 -22.28125 C 17.738281 -22.28125 19.65625 -21.8125 21.34375 -20.875 C 23.039062 -19.945312 24.367188 -18.628906 25.328125 -16.921875 C 26.296875 -15.210938 26.78125 -13.242188 26.78125 -11.015625 C 26.78125 -8.785156 26.296875 -6.8125 25.328125 -5.09375 C 24.367188 -3.375 23.039062 -2.046875 21.34375 -1.109375 C 19.65625 -0.179688 17.738281 0.28125 15.59375 0.28125 C 12.625 0.28125 10.273438 -0.707031 8.546875 -2.6875 L 8.546875 8 L 3.390625 8 L 3.390625 -22.03125 L 8.296875 -22.03125 L 8.296875 -19.140625 C 9.148438 -20.191406 10.203125 -20.976562 11.453125 -21.5 C 12.703125 -22.019531 14.082031 -22.28125 15.59375 -22.28125 Z M 15.015625 -4.125 C 16.921875 -4.125 18.484375 -4.753906 19.703125 -6.015625 C 20.929688 -7.285156 21.546875 -8.953125 21.546875 -11.015625 C 21.546875 -13.078125 20.929688 -14.738281 19.703125 -16 C 18.484375 -17.269531 16.921875 -17.90625 15.015625 -17.90625 C 13.773438 -17.90625 12.660156 -17.625 11.671875 -17.0625 C 10.679688 -16.5 9.894531 -15.691406 9.3125 -14.640625 C 8.738281 -13.597656 8.453125 -12.390625 8.453125 -11.015625 C 8.453125 -9.640625 8.738281 -8.425781 9.3125 -7.375 C 9.894531 -6.332031 10.679688 -5.53125 11.671875 -4.96875 C 12.660156 -4.40625 13.773438 -4.125 15.015625 -4.125 Z M 15.015625 -4.125 "/></g></g></g><g fill="#ffffff" fill-opacity="1"><g transform="translate(212.955651, 51.393027)"><g><path d="M 24.09375 -10.890625 C 24.09375 -10.535156 24.066406 -10.03125 24.015625 -9.375 L 6.71875 -9.375 C 7.03125 -7.75 7.820312 -6.457031 9.09375 -5.5 C 10.375 -4.550781 11.960938 -4.078125 13.859375 -4.078125 C 16.285156 -4.078125 18.28125 -4.878906 19.84375 -6.484375 L 22.609375 -3.296875 C 21.617188 -2.117188 20.367188 -1.226562 18.859375 -0.625 C 17.347656 -0.0195312 15.640625 0.28125 13.734375 0.28125 C 11.316406 0.28125 9.1875 -0.195312 7.34375 -1.15625 C 5.5 -2.113281 4.070312 -3.453125 3.0625 -5.171875 C 2.0625 -6.898438 1.5625 -8.847656 1.5625 -11.015625 C 1.5625 -13.160156 2.050781 -15.09375 3.03125 -16.8125 C 4.007812 -18.53125 5.363281 -19.867188 7.09375 -20.828125 C 8.832031 -21.796875 10.785156 -22.28125 12.953125 -22.28125 C 15.097656 -22.28125 17.015625 -21.804688 18.703125 -20.859375 C 20.398438 -19.910156 21.722656 -18.578125 22.671875 -16.859375 C 23.617188 -15.140625 24.09375 -13.148438 24.09375 -10.890625 Z M 12.953125 -18.15625 C 11.304688 -18.15625 9.910156 -17.664062 8.765625 -16.6875 C 7.628906 -15.71875 6.9375 -14.421875 6.6875 -12.796875 L 19.1875 -12.796875 C 18.96875 -14.390625 18.289062 -15.679688 17.15625 -16.671875 C 16.03125 -17.660156 14.628906 -18.15625 12.953125 -18.15625 Z M 12.953125 -18.15625 "/></g></g></g><g fill="#ffffff" fill-opacity="1"><g transform="translate(237.997684, 51.393027)"><g><path d="M 11.796875 -22.28125 C 15.046875 -22.28125 17.53125 -21.503906 19.25 -19.953125 C 20.96875 -18.398438 21.828125 -16.054688 21.828125 -12.921875 L 21.828125 0 L 16.953125 0 L 16.953125 -2.6875 C 16.328125 -1.71875 15.425781 -0.976562 14.25 -0.46875 C 13.082031 0.03125 11.675781 0.28125 10.03125 0.28125 C 8.375 0.28125 6.925781 0 5.6875 -0.5625 C 4.457031 -1.125 3.503906 -1.90625 2.828125 -2.90625 C 2.148438 -3.914062 1.8125 -5.050781 1.8125 -6.3125 C 1.8125 -8.289062 2.546875 -9.878906 4.015625 -11.078125 C 5.492188 -12.273438 7.816406 -12.875 10.984375 -12.875 L 16.671875 -12.875 L 16.671875 -13.203125 C 16.671875 -14.742188 16.207031 -15.925781 15.28125 -16.75 C 14.363281 -17.570312 13 -17.984375 11.1875 -17.984375 C 9.945312 -17.984375 8.726562 -17.789062 7.53125 -17.40625 C 6.332031 -17.03125 5.320312 -16.5 4.5 -15.8125 L 2.46875 -19.5625 C 3.625 -20.4375 5.015625 -21.109375 6.640625 -21.578125 C 8.265625 -22.046875 9.984375 -22.28125 11.796875 -22.28125 Z M 11.09375 -3.46875 C 12.394531 -3.46875 13.546875 -3.757812 14.546875 -4.34375 C 15.546875 -4.9375 16.253906 -5.785156 16.671875 -6.890625 L 16.671875 -9.453125 L 11.34375 -9.453125 C 8.375 -9.453125 6.890625 -8.472656 6.890625 -6.515625 C 6.890625 -5.578125 7.257812 -4.832031 8 -4.28125 C 8.75 -3.738281 9.78125 -3.46875 11.09375 -3.46875 Z M 11.09375 -3.46875 "/></g></g></g><g fill="#ffffff" fill-opacity="1"><g transform="translate(263.03978, 51.393027)"><g><path d="M 12.375 -9.453125 L 8.546875 -5.8125 L 8.546875 0 L 3.390625 0 L 3.390625 -30.625 L 8.546875 -30.625 L 8.546875 -12.125 L 19.234375 -22.03125 L 25.421875 -22.03125 L 16.21875 -12.796875 L 26.28125 0 L 20.015625 0 Z M 12.375 -9.453125 "/></g></g></g><g clip-path="url(#ff58810a0a)"><path fill="#ffffff" d="M 24.394531 38.660156 L 24.394531 43.824219 L 27.035156 43.824219 L 27.035156 46.410156 L 23.078125 46.410156 L 23.078125 48.992188 L 20.4375 48.992188 L 20.4375 46.410156 L 17.800781 46.410156 L 17.800781 48.992188 L 15.164062 48.992188 L 15.164062 46.34375 C 12.566406 46.019531 10.546875 43.867188 10.546875 41.242188 C 10.546875 39.535156 11.402344 38.035156 12.707031 37.089844 C 11.746094 36.128906 11.207031 34.839844 11.203125 33.492188 C 11.203125 31.089844 12.890625 29.085938 15.164062 28.507812 L 15.164062 25.742188 L 17.800781 25.742188 L 17.800781 28.324219 L 20.4375 28.324219 L 20.4375 25.742188 L 23.078125 25.742188 L 23.078125 28.324219 L 27.035156 28.324219 L 27.035156 30.910156 L 24.394531 30.910156 Z M 15.820312 43.824219 L 21.757812 43.824219 L 21.757812 38.660156 L 15.820312 38.660156 C 14.367188 38.660156 13.183594 39.816406 13.183594 41.242188 C 13.183594 42.667969 14.367188 43.824219 15.820312 43.824219 Z M 21.757812 30.910156 L 16.480469 30.910156 C 15.027344 30.910156 13.84375 32.066406 13.84375 33.492188 C 13.84375 34.917969 15.027344 36.074219 16.480469 36.074219 L 21.757812 36.074219 Z M 21.757812 30.910156 " fill-opacity="1" fill-rule="nonzero"/></g></svg>